<svg xmlns="http://www.w3.org/2000/svg" aria-hidden="true" role="img" viewBox="0 0 24 24" width="24" height="24">
  <path fill="#181717" d="M12 0a12 12 0 0 0-3.819 23.395c.605.112.793-.263.793-.577v-2.009c-3.233.705-3.923-1.584-3.923-1.584-.53-1.344-1.293-1.7-1.293-1.7-1.057-.722.08-.708.08-.708 1.17.083 1.785 1.2 1.785 1.2 1.037 1.782 2.725 1.266 3.392.965.105-.75.405-1.265.737-1.556-2.577-.295-5.292-1.291-5.292-5.733 0-1.266.453-2.302 1.2-3.115-.12-.3-.52-1.477.114-3.077 0 0 .972-.313 3.184 1.2.924-.257 1.92-.385 2.904-.39.984.005 1.98.133 2.904.39 2.21-1.513 3.18-1.2 3.18-1.2.635 1.6.235 2.777.115 3.077.75.813 1.199 1.85 1.199 3.115 0 4.453-2.72 5.435-5.305 5.725.417.357.79 1.065.79 2.145v3.184c0 .318.187.69.8.57A12.002 12.002 0 0 0 12 0z"/>
</svg>
